<?xml version="1.0" encoding="utf-8"?>
<!-- Generator: Adobe Illustrator 23.0.4, SVG Export Plug-In . SVG Version: 6.00 Build 0)  -->
<svg version="1.1" id="Layer_1" xmlns="http://www.w3.org/2000/svg" xmlns:xlink="http://www.w3.org/1999/xlink" x="0px" y="0px"
	 viewBox="0 0 65 65" style="enable-background:new 0 0 65 65;" xml:space="preserve">
<style type="text/css">
	.st0{fill:none;stroke:#323232;stroke-width:0.866;stroke-linejoin:round;}
	.st1{fill:none;stroke:#323232;stroke-width:0.866;stroke-linecap:round;stroke-linejoin:round;}
</style>
<g id="Page-1">
	<g id="IB-239-What-is-5-Copy-2" transform="translate(-494.000000, -841.000000)">
		<g id="Group-12" transform="translate(122.000000, 807.000000)">
			<g id="Group-11" transform="translate(328.000000, -0.000000)">
				<g id="Group-14" transform="translate(45.000000, 34.000000)">
					<g id="Group-5" transform="translate(38.000000, 0.000000)">
						<polygon id="Stroke-1" class="st0" points="3,64.6 25.4,64.6 25.4,56.9 3,56.9 						"/>
						<polygon id="Stroke-3" class="st0" points="3,36.3 25.4,36.3 25.4,28.7 3,28.7 						"/>
						<polygon id="Stroke-4" class="st0" points="3,8.1 25.4,8.1 25.4,0.4 3,0.4 						"/>
					</g>
					<line id="Stroke-6" class="st0" x1="26.4" y1="33.2" x2="40.4" y2="33.2"/>
					<polyline id="Stroke-7" class="st0" points="41,4.1 12.4,4.1 12.4,15.9 					"/>
					<polyline id="Stroke-8" class="st0" points="41,61.1 12.4,61.1 12.4,49.3 					"/>
					<line id="Stroke-9" class="st1" x1="4.9" y1="40.7" x2="22.1" y2="40.7"/>
					<line id="Stroke-10" class="st1" x1="4.9" y1="33.2" x2="22.1" y2="33.2"/>
					<line id="Stroke-11" class="st1" x1="4.9" y1="24.6" x2="22.1" y2="24.6"/>
					<polygon id="Stroke-12" class="st1" points="-0.5,49.3 26.4,49.3 26.4,17 -0.5,17 					"/>
				</g>
			</g>
		</g>
	</g>
</g>
</svg>
