<?xml version="1.0" encoding="utf-8"?>
<!-- Generator: Adobe Illustrator 23.0.4, SVG Export Plug-In . SVG Version: 6.00 Build 0)  -->
<svg version="1.1" id="Layer_1" xmlns="http://www.w3.org/2000/svg" xmlns:xlink="http://www.w3.org/1999/xlink" x="0px" y="0px"
	 viewBox="0 0 65 65" style="enable-background:new 0 0 65 65;" xml:space="preserve">
<style type="text/css">
	.st0{clip-path:url(#SVGID_2_);}
	.st1{clip-path:url(#SVGID_4_);fill:#323232;}
</style>
<g>
	<defs>
		<path id="SVGID_1_" d="M7.2,1.9c-3.1,0-5.6,2.5-5.6,5.6c0,3.1,2.5,5.6,5.6,5.6s5.6-2.5,5.6-5.6C12.8,4.4,10.3,1.9,7.2,1.9z
			 M7.2,0.3c4,0,7.2,3.2,7.2,7.2c0,4-3.2,7.2-7.2,7.2S0,11.5,0,7.5C0,3.6,3.2,0.3,7.2,0.3z M32.8,17.2c-1.9,0-3.5,1.5-3.5,3.4v4.1
			c1.1-0.4,2.2-0.7,3.5-0.7c1.2,0,2.4,0.2,3.5,0.7v-4.1C36.3,18.8,34.8,17.2,32.8,17.2z M51.2,6.5c7.4,0,13.4,6,13.4,13.3
			c0,7.4-6,13.3-13.4,13.3h-6.3v-1.5h6.3c6.6,0,11.9-5.3,11.9-11.8C63.1,13.3,57.8,8,51.2,8H19.5V6.5H51.2z M32.3,31.1
			c0.8,0,1.5,0.7,1.5,1.6c0,0.6-0.3,1.1-0.8,1.4v2.4c0,0.4-0.3,0.8-0.7,0.8c-0.4,0-0.7-0.3-0.7-0.8v-2.4c-0.5-0.3-0.8-0.8-0.8-1.4
			C30.8,31.8,31.5,31.1,32.3,31.1z M32.8,25.6c-4.2,0-7.7,3.4-7.7,7.6s3.5,7.6,7.7,7.6s7.7-3.4,7.7-7.6S37.1,25.6,32.8,25.6z
			 M32.8,15.7c2.7,0,5,2.2,5,4.9v4.9c2.5,1.6,4.2,4.5,4.2,7.7c0,5-4.1,9.1-9.2,9.1s-9.2-4.1-9.2-9.1c0-3.2,1.7-6,4.2-7.7v-4.9
			C27.9,17.9,30.1,15.7,32.8,15.7z M19.8,32.1v1.5h-6.3c-6.6,0-11.9,5.3-11.9,11.8c0,6.5,5.3,11.8,11.9,11.8h31.7v1.5H13.5
			C6.1,58.8,0,52.8,0,45.5c0-7.4,6-13.3,13.4-13.3H19.8z M57.5,52.1c-3.1,0-5.6,2.5-5.6,5.6c0,3.1,2.5,5.6,5.6,5.6s5.6-2.5,5.6-5.6
			C63.1,54.7,60.6,52.1,57.5,52.1z M57.5,50.6c4,0,7.2,3.2,7.2,7.2c0,4-3.2,7.2-7.2,7.2s-7.2-3.2-7.2-7.2
			C50.3,53.8,53.5,50.6,57.5,50.6z"/>
	</defs>
	<clipPath id="SVGID_2_">
		<use xlink:href="#SVGID_1_"  style="overflow:visible;"/>
	</clipPath>
	<g class="st0">
		<defs>
			<rect id="SVGID_3_" x="-865.5" y="-860" width="1640.8" height="5666.9"/>
		</defs>
		<clipPath id="SVGID_4_">
			<use xlink:href="#SVGID_3_"  style="overflow:visible;"/>
		</clipPath>
		<rect x="-5.1" y="-4.8" class="st1" width="74.9" height="74.9"/>
	</g>
</g>
</svg>
