<?xml version="1.0" encoding="utf-8"?>
<!-- Generator: Adobe Illustrator 23.0.4, SVG Export Plug-In . SVG Version: 6.00 Build 0)  -->
<svg version="1.1" id="Layer_1" xmlns="http://www.w3.org/2000/svg" xmlns:xlink="http://www.w3.org/1999/xlink" x="0px" y="0px"
	 viewBox="0 0 65 65" style="enable-background:new 0 0 65 65;" xml:space="preserve">
<style type="text/css">
	.st0{clip-path:url(#SVGID_2_);}
	.st1{clip-path:url(#SVGID_4_);fill:#323232;}
</style>
<g>
	<defs>
		<path id="SVGID_1_" d="M44.2,12.4l1.3,0.8l-7.7,13.3c-0.1,0.2-0.4,0.4-0.7,0.4c-0.3,0-0.5-0.2-0.6-0.4l-4-8.8l-5,8.9
			c-0.1,0.3-0.4,0.4-0.7,0.4c-0.3,0-0.5-0.2-0.6-0.5l-2-6.4l-4.8,8.6l-1.3-0.8l5.6-10.1c0.1-0.3,0.5-0.4,0.7-0.4
			c0.3,0,0.5,0.2,0.6,0.5l2,6.4l4.8-8.7c0.1-0.2,0.4-0.4,0.7-0.4c0.3,0,0.5,0.2,0.6,0.4l4,8.8L44.2,12.4z M32.5,1.8
			c-11.2,0-20.4,9.1-20.4,20.3c0,11.2,9.1,20.3,20.4,20.3c5.4,0,10.5-2.1,14.4-5.9c3.8-3.8,6-8.9,6-14.3
			C52.8,10.9,43.7,1.8,32.5,1.8z M10.6,54.4h-8l8,7.9V54.4z M10.6,22.9h-9v30h9.8c0.4,0,0.8,0.3,0.8,0.8v9.8h19.6V43.9
			c-0.3,0-0.5,0-0.8-0.1c-0.3,0-0.6,0-1-0.1c-0.4,0-0.8-0.1-1.2-0.2c-0.3-0.1-0.6-0.1-0.9-0.2c-0.4-0.1-0.8-0.2-1.1-0.3
			c-0.3-0.1-0.6-0.2-0.9-0.3c-0.4-0.1-0.7-0.3-1.1-0.4c-0.3-0.1-0.6-0.2-0.8-0.3c-0.4-0.2-0.7-0.3-1.1-0.5c-0.3-0.1-0.5-0.3-0.8-0.4
			c-0.4-0.2-0.7-0.4-1-0.6c-0.2-0.1-0.5-0.3-0.7-0.4c-0.4-0.2-0.7-0.5-1-0.8c-0.2-0.2-0.4-0.3-0.6-0.5c-0.4-0.4-0.8-0.7-1.2-1.1
			c-0.2-0.2-0.4-0.4-0.6-0.6c-0.4-0.4-0.7-0.8-1.1-1.2c-0.2-0.2-0.4-0.5-0.5-0.7c-0.2-0.3-0.5-0.6-0.7-0.9c-0.2-0.3-0.3-0.5-0.5-0.8
			c-0.2-0.3-0.4-0.6-0.6-0.9c-0.2-0.3-0.3-0.6-0.4-0.9c-0.2-0.3-0.3-0.6-0.5-1c-0.1-0.3-0.2-0.6-0.4-0.9c-0.1-0.3-0.3-0.7-0.4-1
			c-0.1-0.3-0.2-0.7-0.3-1c-0.1-0.3-0.2-0.7-0.3-1c-0.1-0.3-0.1-0.7-0.2-1c-0.1-0.4-0.1-0.7-0.2-1.1c0-0.4-0.1-0.7-0.1-1.1
			C10.7,23.4,10.6,23.1,10.6,22.9z M32.5,0.3c12.1,0,21.9,9.8,21.9,21.8c0,5.6-2.1,10.8-5.9,14.9l16.2,16.2l-1.1,1.1L47.4,38
			c-3.9,3.6-8.8,5.7-14.1,5.8v20.3c0,0.4-0.3,0.8-0.8,0.8H11.4c-0.2,0-0.4-0.1-0.5-0.2L0.3,54.2C0.1,54.1,0,53.9,0,53.7V22.1
			c0-0.4,0.3-0.8,0.8-0.8h9.8C11,9.7,20.7,0.3,32.5,0.3z"/>
	</defs>
	<clipPath id="SVGID_2_">
		<use xlink:href="#SVGID_1_"  style="overflow:visible;"/>
	</clipPath>
	<g class="st0">
		<defs>
			<rect id="SVGID_3_" x="-1205.8" y="-847" width="1615.8" height="5580.6"/>
		</defs>
		<clipPath id="SVGID_4_">
			<use xlink:href="#SVGID_3_"  style="overflow:visible;"/>
		</clipPath>
		<rect x="-5" y="-4.7" class="st1" width="74.7" height="74.7"/>
	</g>
</g>
</svg>
